<?xml version="1.0" encoding="iso-8859-1"?>
<!-- Generator: Adobe Illustrator 19.0.0, SVG Export Plug-In . SVG Version: 6.00 Build 0)  -->
<svg version="1.1" id="Capa_1" xmlns="http://www.w3.org/2000/svg" xmlns:xlink="http://www.w3.org/1999/xlink" x="0px" y="0px"
	 viewBox="0 0 470.001 470.001" style="enable-background:new 0 0 470.001 470.001;" xml:space="preserve">
<g>
	<path fill="green" d="M467.804,379.416l-49.451-49.451c-0.019-0.02-79.054-79.054-79.054-79.054c-2.93-2.928-7.678-2.928-10.607,0
		c-2.929,2.93-2.929,7.678,0,10.607l52.528,52.527l-67.175,67.174l-52.528-52.528c-2.93-2.928-7.678-2.928-10.607,0
		c-2.929,2.93-2.929,7.678,0,10.607l79.039,79.039c0.012,0.012,49.467,49.466,49.467,49.466c1.465,1.464,3.385,2.196,5.304,2.196
		s3.839-0.732,5.304-2.196l77.781-77.781C470.733,387.094,470.733,382.346,467.804,379.416z M391.827,324.653l10.606,10.605
		l-67.175,67.175l-10.606-10.606L391.827,324.653z M384.719,451.895l-38.854-38.854l67.175-67.175l38.854,38.854L384.719,451.895z"
		/>
	<path fill="green" d="M44.397,115.563l-3.309,3.309c-2.929,2.929-2.929,7.677,0,10.606l89.614,89.614c1.464,1.464,3.384,2.196,5.303,2.196
		s3.839-0.732,5.303-2.196c2.929-2.93,2.929-7.678,0-10.607l-13.6-13.6l67.175-67.175l13.6,13.6
		c1.464,1.464,3.384,2.196,5.303,2.196s3.839-0.732,5.303-2.196c2.929-2.93,2.929-7.678,0-10.607l-89.614-89.614
		c-2.928-2.928-7.677-2.928-10.606,0l-3.309,3.309L24.896,0.743c-2.872-1.384-6.303-0.8-8.557,1.454L2.197,16.339
		c-2.254,2.254-2.837,5.686-1.454,8.558L44.397,115.563z M117.102,184.278l-10.606-10.606l67.175-67.175l10.606,10.606
		L117.102,184.278z M23.183,16.567l81.14,39.068L90.586,69.372c-2.929,2.93-2.929,7.678,0,10.607c2.928,2.927,7.677,2.929,10.606,0
		l22.981-22.981l38.891,38.891l-67.175,67.175l-38.891-38.89l22.981-22.982c2.929-2.929,2.929-7.677,0-10.606
		c-2.929-2.928-7.678-2.929-10.606,0.001l-13.738,13.739L16.566,23.184L23.183,16.567z"/>
	<path fill="blue" d="M140.049,418.341l288.865-288.864c2.929-2.93,2.929-7.678,0-10.607l-3.309-3.309l43.653-90.665
		c1.382-2.872,0.799-6.304-1.454-8.558L453.663,2.197c-2.255-2.253-5.687-2.836-8.558-1.454L354.44,44.397l-3.309-3.309
		c-1.407-1.406-3.314-2.196-5.304-2.196s-3.896,0.79-5.304,2.196L72.873,308.74c-0.004,0.004-21.212,21.212-21.212,21.212
		c-0.005,0.005-49.463,49.463-49.463,49.463c-1.407,1.407-2.197,3.314-2.197,5.304s0.79,3.896,2.197,5.304l77.782,77.781
		c1.464,1.464,3.384,2.196,5.303,2.196s3.839-0.732,5.303-2.196C90.586,467.805,140.042,418.348,140.049,418.341z M78.174,324.653
		l67.175,67.175l-10.606,10.606l-67.175-67.175L78.174,324.653z M275.117,127.709l67.176,67.176L155.956,381.221l-67.175-67.175
		L275.117,127.709z M296.33,106.496l67.176,67.176L352.9,184.278l-67.176-67.176L296.33,106.496z M345.828,56.998l12.374,12.375
		c2.93,2.928,7.678,2.928,10.607,0c2.929-2.93,2.929-7.678,0-10.607l-3.131-3.131l81.14-39.068l6.617,6.617l-39.068,81.14
		l-24.344-24.345c-2.929-2.927-7.678-2.929-10.606,0c-2.93,2.93-2.93,7.678-0.001,10.606l33.588,33.589l-38.891,38.891
		l-67.176-67.176L345.828,56.998z M85.282,451.895L18.107,384.72l38.854-38.854l67.175,67.175L85.282,451.895z"/>
</g>
<g>
</g>
<g>
</g>
<g>
</g>
<g>
</g>
<g>
</g>
<g>
</g>
<g>
</g>
<g>
</g>
<g>
</g>
<g>
</g>
<g>
</g>
<g>
</g>
<g>
</g>
<g>
</g>
<g>
</g>
</svg>
